<svg width="1726" height="508" viewBox="0 0 1726 508" fill="none" xmlns="http://www.w3.org/2000/svg">
<rect width="1726" height="508" fill="url(#paint0_linear_6_13)"/>
<circle cx="1446.5" cy="253.5" r="217.5" fill="#D9D9D9" stroke="black" stroke-width="12"/>
<path d="M1495.5 253.5C1495.5 307.189 1489.12 355.472 1479 390.059C1473.92 407.409 1468.04 420.831 1461.89 429.722C1455.56 438.871 1450.22 441.5 1446.5 441.5C1442.78 441.5 1437.44 438.871 1431.11 429.722C1424.96 420.831 1419.08 407.409 1414 390.059C1403.88 355.472 1397.5 307.189 1397.5 253.5C1397.5 199.811 1403.88 151.528 1414 116.941C1419.08 99.591 1424.96 86.1694 1431.11 77.278C1437.44 68.1285 1442.78 65.5 1446.5 65.5C1450.22 65.5 1455.56 68.1285 1461.89 77.278C1468.04 86.1694 1473.92 99.591 1479 116.941C1489.12 151.528 1495.5 199.811 1495.5 253.5Z" stroke="black" stroke-width="17"/>
<path d="M1470.97 210.826C1517.43 237.65 1556.01 267.323 1580.85 293.409C1593.31 306.493 1601.97 318.315 1606.58 328.108C1611.31 338.177 1610.92 344.161 1609.03 347.434C1607.14 350.708 1602.15 354.039 1591.06 354.974C1580.28 355.884 1565.71 354.296 1548.15 350.045C1513.14 341.572 1468.15 322.998 1421.69 296.174C1375.23 269.349 1336.65 239.676 1311.81 213.591C1299.34 200.506 1290.68 188.685 1286.08 178.892C1281.35 168.823 1281.74 162.839 1283.63 159.566C1285.52 156.292 1290.51 152.961 1301.59 152.026C1312.38 151.116 1326.94 152.704 1344.51 156.955C1379.52 165.428 1424.5 184.002 1470.97 210.826Z" stroke="black" stroke-width="17"/>
<path d="M1421.69 210.826C1468.15 184.002 1513.14 165.428 1548.15 156.955C1565.71 152.704 1580.28 151.116 1591.06 152.026C1602.15 152.961 1607.14 156.292 1609.03 159.566C1610.92 162.839 1611.31 168.823 1606.58 178.892C1601.97 188.685 1593.31 200.507 1580.85 213.591C1556.01 239.676 1517.43 269.349 1470.97 296.174C1424.5 322.998 1379.52 341.572 1344.51 350.045C1326.94 354.296 1312.38 355.884 1301.59 354.974C1290.51 354.039 1285.52 350.708 1283.63 347.434C1281.74 344.161 1281.35 338.177 1286.08 328.108C1290.68 318.315 1299.34 306.493 1311.81 293.409C1336.65 267.323 1375.23 237.65 1421.69 210.826Z" stroke="black" stroke-width="17"/>
<path d="M1296.9 253.5L1292.88 251.488L1291.87 253.5L1292.88 255.512L1296.9 253.5ZM1296.9 253.5C1292.88 255.512 1292.88 255.514 1292.88 255.516L1292.88 255.523L1292.89 255.543L1292.93 255.615C1292.96 255.676 1293 255.763 1293.06 255.877C1293.18 256.103 1293.35 256.432 1293.57 256.857C1294.02 257.706 1294.69 258.94 1295.56 260.502C1297.31 263.626 1299.91 268.069 1303.32 273.391C1310.13 284.027 1320.22 298.221 1333.32 312.434C1359.42 340.75 1398.07 369.768 1447.04 369.768C1494.94 369.768 1533.03 340.712 1558.83 312.416C1571.79 298.206 1581.8 284.014 1588.58 273.382C1591.97 268.061 1594.55 263.62 1596.3 260.498C1597.17 258.936 1597.83 257.704 1598.28 256.855C1598.51 256.43 1598.68 256.101 1598.79 255.875C1598.81 255.831 1598.83 255.791 1598.85 255.755C1598.88 255.698 1598.91 255.651 1598.92 255.614L1598.96 255.543L1598.97 255.523L1598.97 255.516C1598.98 255.514 1598.98 255.512 1594.95 253.5M1296.9 253.5C1292.88 251.488 1292.88 251.486 1292.88 251.484L1292.88 251.477L1292.89 251.456L1292.93 251.385C1292.96 251.324 1293 251.237 1293.06 251.123C1293.18 250.897 1293.35 250.568 1293.57 250.143C1294.02 249.294 1294.69 248.06 1295.56 246.498C1297.31 243.374 1299.91 238.931 1303.32 233.609C1310.13 222.973 1320.22 208.779 1333.32 194.566C1359.42 166.25 1398.07 137.232 1447.04 137.232C1494.94 137.232 1533.03 166.288 1558.83 194.584C1571.79 208.794 1581.8 222.986 1588.58 233.618C1591.97 238.939 1594.55 243.38 1596.3 246.502C1597.17 248.064 1597.83 249.296 1598.28 250.145C1598.51 250.57 1598.68 250.899 1598.79 251.124C1598.85 251.237 1598.89 251.325 1598.92 251.386L1598.96 251.457L1598.97 251.477L1598.97 251.484C1598.98 251.486 1598.98 251.488 1594.95 253.5M1594.95 253.5L1598.98 255.512L1599.98 253.5L1598.98 251.488L1594.95 253.5ZM1485.34 242.092L1482.59 229.719L1476.92 241.056C1474.59 245.715 1470.07 249 1464.55 249C1456.61 249 1450.43 242.818 1450.43 234.872C1450.43 229.361 1453.71 224.834 1458.37 222.504L1468.09 217.646L1457.78 214.21L1457.55 214.134C1454.34 213.061 1450.39 211.744 1445.93 211.744C1422.95 211.744 1404.17 230.524 1404.17 253.5C1404.17 276.476 1422.95 295.256 1445.93 295.256C1468.9 295.256 1487.68 276.476 1487.68 253.5C1487.68 251.051 1487.19 248.835 1486.69 246.97C1486.46 246.127 1486.26 245.43 1486.07 244.796C1485.79 243.849 1485.55 243.042 1485.34 242.092ZM1445.93 183.488C1484.78 183.488 1515.94 214.989 1515.94 253.5C1515.94 292.369 1484.8 323.512 1445.93 323.512C1407.42 323.512 1375.91 292.354 1375.91 253.5C1375.91 215.004 1407.43 183.488 1445.93 183.488Z" fill="black" stroke="#D9D9D9" stroke-width="9"/>
<path d="M255.229 177.875H193.852V152.094H345.902V177.875H284.525V356H255.229V177.875ZM382.816 152.094H440.678C479.252 152.094 504.105 163.52 515.238 186.371C519.242 194.77 521.244 204.242 521.244 214.789C521.244 225.238 519.828 234.076 516.996 241.303C514.262 248.529 510.404 254.73 505.424 259.906C495.854 269.867 482.67 276.41 465.873 279.535C472.807 300.922 484.574 315.668 501.176 323.773C506.645 326.508 511.234 327.973 514.945 328.168C521.195 328.363 525.59 328.168 528.129 327.582V356H521.537C499.564 356 480.863 348.188 465.434 332.562C451.859 318.988 442.729 301.898 438.041 281.293H412.113V356H382.816V152.094ZM438.773 257.855C456.449 257.855 469.535 254.438 478.031 247.602C486.527 240.766 490.775 230.121 490.775 215.668C490.775 196.43 481.84 184.027 463.969 178.461C457.719 176.508 450.15 175.531 441.264 175.531H412.113V257.855H438.773ZM555.961 152.094H585.258V356H555.961V152.094ZM633.012 152.094H690.873C729.447 152.094 754.301 163.52 765.434 186.371C769.438 194.77 771.439 204.73 771.439 216.254C771.439 227.777 769.389 237.641 765.287 245.844C761.186 254.047 755.668 260.785 748.734 266.059C735.258 276.215 717.24 281.293 694.682 281.293H662.309V356H633.012V152.094ZM688.969 257.855C706.645 257.855 719.73 254.438 728.227 247.602C736.723 240.766 740.971 230.121 740.971 215.668C740.971 196.43 732.035 184.027 714.164 178.461C707.914 176.508 700.346 175.531 691.459 175.531H662.309V257.855H688.969ZM808.207 152.094H866.068C904.643 152.094 929.496 163.52 940.629 186.371C944.633 194.77 946.635 204.73 946.635 216.254C946.635 227.777 944.584 237.641 940.482 245.844C936.381 254.047 930.863 260.785 923.93 266.059C910.453 276.215 892.436 281.293 869.877 281.293H837.504V356H808.207V152.094ZM864.164 257.855C881.84 257.855 894.926 254.438 903.422 247.602C911.918 240.766 916.166 230.121 916.166 215.668C916.166 196.43 907.23 184.027 889.359 178.461C883.109 176.508 875.541 175.531 866.654 175.531H837.504V257.855H864.164ZM1031.3 267.23L958.5 152.094H990.141L1046.98 243.207L1102.64 152.094H1134.28L1061.77 266.938V356H1031.3V267.23Z" fill="url(#paint1_linear_6_13)"/>
<defs>
<linearGradient id="paint0_linear_6_13" x1="863" y1="0" x2="863" y2="508" gradientUnits="userSpaceOnUse">
<stop stop-color="#7400E8"/>
<stop offset="1" stop-color="#0047FF"/>
</linearGradient>
<linearGradient id="paint1_linear_6_13" x1="82" y1="215.5" x2="1235" y2="215.5" gradientUnits="userSpaceOnUse">
<stop stop-color="#FAFF00"/>
<stop offset="1" stop-color="#FF6B00"/>
</linearGradient>
</defs>
</svg>
